<mxfile host="app.diagrams.net" agent="Mozilla/5.0 (Windows NT 10.0; Win64; x64; rv:129.0) Gecko/20100101 Firefox/129.0" border="50" scale="3" compressed="false" locked="false" version="24.7.7">
  <diagram name="Blank" id="YmL12bMKpDGza6XwsDPr">
    <mxGraphModel dx="2420" dy="728" grid="0" gridSize="10" guides="1" tooltips="1" connect="1" arrows="1" fold="1" page="0" pageScale="1" pageWidth="827" pageHeight="1169" background="none" math="1" shadow="0">
      <root>
        <mxCell id="X5NqExCQtvZxIxQ7pmgY-0" />
        <mxCell id="1" parent="X5NqExCQtvZxIxQ7pmgY-0" />
        <mxCell id="eWnEo5utdYQ2Xt9aBgbI-1" value="" style="rounded=1;whiteSpace=wrap;html=1;fillColor=#f5f5f5;fontColor=#333333;strokeColor=#666666;" parent="1" vertex="1">
          <mxGeometry x="-844" y="366" width="84" height="57" as="geometry" />
        </mxCell>
        <mxCell id="eWnEo5utdYQ2Xt9aBgbI-5" value="" style="shape=requiredInterface;html=1;verticalLabelPosition=bottom;sketch=0;" parent="1" vertex="1">
          <mxGeometry x="-745" y="373" width="18" height="39" as="geometry" />
        </mxCell>
        <mxCell id="eWnEo5utdYQ2Xt9aBgbI-7" value="" style="shape=providedRequiredInterface;html=1;verticalLabelPosition=bottom;sketch=0;" parent="1" vertex="1">
          <mxGeometry x="-753" y="382.5" width="20" height="20" as="geometry" />
        </mxCell>
        <mxCell id="_OBBG4zHjgqW1oDjOWqD-17" style="edgeStyle=orthogonalEdgeStyle;rounded=0;orthogonalLoop=1;jettySize=auto;html=1;exitX=1;exitY=0.5;exitDx=0;exitDy=0;entryX=0;entryY=0.5;entryDx=0;entryDy=0;" edge="1" parent="1" source="eWnEo5utdYQ2Xt9aBgbI-8" target="eWnEo5utdYQ2Xt9aBgbI-9">
          <mxGeometry relative="1" as="geometry" />
        </mxCell>
        <mxCell id="eWnEo5utdYQ2Xt9aBgbI-8" value="" style="rounded=1;whiteSpace=wrap;html=1;" parent="1" vertex="1">
          <mxGeometry x="-678" y="366" width="93" height="60" as="geometry" />
        </mxCell>
        <mxCell id="_OBBG4zHjgqW1oDjOWqD-21" style="edgeStyle=orthogonalEdgeStyle;rounded=0;orthogonalLoop=1;jettySize=auto;html=1;exitX=1;exitY=0.5;exitDx=0;exitDy=0;entryX=0;entryY=0.5;entryDx=0;entryDy=0;" edge="1" parent="1" source="eWnEo5utdYQ2Xt9aBgbI-9" target="_OBBG4zHjgqW1oDjOWqD-20">
          <mxGeometry relative="1" as="geometry" />
        </mxCell>
        <mxCell id="eWnEo5utdYQ2Xt9aBgbI-9" value="" style="whiteSpace=wrap;html=1;aspect=fixed;" parent="1" vertex="1">
          <mxGeometry x="-502" y="341" width="110" height="110" as="geometry" />
        </mxCell>
        <mxCell id="eWnEo5utdYQ2Xt9aBgbI-11" value="&lt;div&gt;NFC Tag&lt;/div&gt;" style="text;strokeColor=none;align=center;fillColor=none;html=1;verticalAlign=middle;whiteSpace=wrap;rounded=0;" parent="1" vertex="1">
          <mxGeometry x="-832" y="330" width="60" height="30" as="geometry" />
        </mxCell>
        <mxCell id="eWnEo5utdYQ2Xt9aBgbI-12" value="RFID-RC522" style="text;strokeColor=none;align=center;fillColor=none;html=1;verticalAlign=middle;whiteSpace=wrap;rounded=0;" parent="1" vertex="1">
          <mxGeometry x="-661.5" y="336" width="60" height="30" as="geometry" />
        </mxCell>
        <mxCell id="eWnEo5utdYQ2Xt9aBgbI-13" value="ESP32" style="text;strokeColor=none;align=center;fillColor=none;html=1;verticalAlign=middle;whiteSpace=wrap;rounded=0;" parent="1" vertex="1">
          <mxGeometry x="-477" y="302" width="60" height="30" as="geometry" />
        </mxCell>
        <mxCell id="_OBBG4zHjgqW1oDjOWqD-15" style="edgeStyle=orthogonalEdgeStyle;rounded=0;orthogonalLoop=1;jettySize=auto;html=1;exitX=0.5;exitY=0;exitDx=0;exitDy=0;entryX=0.25;entryY=1;entryDx=0;entryDy=0;" edge="1" parent="1" source="_OBBG4zHjgqW1oDjOWqD-3" target="eWnEo5utdYQ2Xt9aBgbI-9">
          <mxGeometry relative="1" as="geometry" />
        </mxCell>
        <mxCell id="_OBBG4zHjgqW1oDjOWqD-3" value="" style="rounded=1;whiteSpace=wrap;html=1;" vertex="1" parent="1">
          <mxGeometry x="-595" y="499" width="93" height="60" as="geometry" />
        </mxCell>
        <mxCell id="_OBBG4zHjgqW1oDjOWqD-16" style="edgeStyle=orthogonalEdgeStyle;rounded=0;orthogonalLoop=1;jettySize=auto;html=1;exitX=0.5;exitY=0;exitDx=0;exitDy=0;entryX=0.75;entryY=1;entryDx=0;entryDy=0;" edge="1" parent="1" source="_OBBG4zHjgqW1oDjOWqD-4" target="eWnEo5utdYQ2Xt9aBgbI-9">
          <mxGeometry relative="1" as="geometry" />
        </mxCell>
        <mxCell id="_OBBG4zHjgqW1oDjOWqD-4" value="" style="rounded=1;whiteSpace=wrap;html=1;" vertex="1" parent="1">
          <mxGeometry x="-392" y="499" width="93" height="60" as="geometry" />
        </mxCell>
        <mxCell id="_OBBG4zHjgqW1oDjOWqD-18" value="LED" style="text;strokeColor=none;align=center;fillColor=none;html=1;verticalAlign=middle;whiteSpace=wrap;rounded=0;" vertex="1" parent="1">
          <mxGeometry x="-578.5" y="559.0014285714285" width="60" height="30" as="geometry" />
        </mxCell>
        <mxCell id="_OBBG4zHjgqW1oDjOWqD-19" value="Speaker/Buzzer" style="text;strokeColor=none;align=center;fillColor=none;html=1;verticalAlign=middle;whiteSpace=wrap;rounded=0;" vertex="1" parent="1">
          <mxGeometry x="-375.4971428571429" y="559" width="60" height="30" as="geometry" />
        </mxCell>
        <mxCell id="_OBBG4zHjgqW1oDjOWqD-20" value="" style="rounded=1;whiteSpace=wrap;html=1;" vertex="1" parent="1">
          <mxGeometry x="-304" y="366" width="104" height="60" as="geometry" />
        </mxCell>
        <mxCell id="_OBBG4zHjgqW1oDjOWqD-22" value=".CSV" style="text;strokeColor=none;align=center;fillColor=none;html=1;verticalAlign=middle;whiteSpace=wrap;rounded=0;" vertex="1" parent="1">
          <mxGeometry x="-274" y="335.9966666666667" width="60" height="30" as="geometry" />
        </mxCell>
        <mxCell id="_OBBG4zHjgqW1oDjOWqD-24" value="WiFi" style="text;strokeColor=none;align=center;fillColor=none;html=1;verticalAlign=middle;whiteSpace=wrap;rounded=0;" vertex="1" parent="1">
          <mxGeometry x="-127.99666666666653" y="365.99333333333334" width="60" height="30" as="geometry" />
        </mxCell>
        <mxCell id="_OBBG4zHjgqW1oDjOWqD-25" value="" style="ellipse;shape=cloud;whiteSpace=wrap;html=1;" vertex="1" parent="1">
          <mxGeometry x="-100" y="252" width="120" height="80" as="geometry" />
        </mxCell>
        <mxCell id="_OBBG4zHjgqW1oDjOWqD-26" style="edgeStyle=orthogonalEdgeStyle;rounded=0;orthogonalLoop=1;jettySize=auto;html=1;exitX=1;exitY=0.5;exitDx=0;exitDy=0;entryX=0.55;entryY=0.95;entryDx=0;entryDy=0;entryPerimeter=0;" edge="1" parent="1" source="_OBBG4zHjgqW1oDjOWqD-20" target="_OBBG4zHjgqW1oDjOWqD-25">
          <mxGeometry relative="1" as="geometry" />
        </mxCell>
        <mxCell id="_OBBG4zHjgqW1oDjOWqD-27" value="Cloud/ PC" style="text;strokeColor=none;align=center;fillColor=none;html=1;verticalAlign=middle;whiteSpace=wrap;rounded=0;" vertex="1" parent="1">
          <mxGeometry x="-68.00000000000003" y="214.76" width="60" height="37.24" as="geometry" />
        </mxCell>
      </root>
    </mxGraphModel>
  </diagram>
</mxfile>
